<?xml version="1.0" encoding="UTF-8" standalone="no"?>
<svg
   xmlns:dc="http://purl.org/dc/elements/1.1/"
   xmlns:cc="http://creativecommons.org/ns#"
   xmlns:rdf="http://www.w3.org/1999/02/22-rdf-syntax-ns#"
   xmlns:svg="http://www.w3.org/2000/svg"
   xmlns="http://www.w3.org/2000/svg"
   version="1.1"
   id="Layer_1"
   x="0px"
   y="0px"
   viewBox="0 0 511.99999 512.00001"
   xml:space="preserve"
   width="24"
   height="24"><defs
   id="defs6" />
<path
   d="m 381,42.9 c -0.5,0 -1,0.2 -1.9,0.3 0,82.9 0,165.8 0,249.5 -1.6,-1.2 -2.5,-1.7 -3.2,-2.4 C 279.7,194.2 183.6,98 87.5,1.9 86.9,1.3 86.5,0.6 86,0 85.7,0 85.3,0 85,0 84.4,0.8 83.9,1.6 83.2,2.3 56.2,29.3 29.3,56.2 2.3,83.2 1.6,83.9 0.8,84.4 0,85 c 0,0.3 0,0.7 0,1 1.2,1.1 2.5,2.1 3.7,3.3 95,94.9 189.9,189.9 284.9,284.9 1.3,1.3 2.5,2.6 4.4,4.6 -83.8,0 -166.6,0 -249.6,0 -0.3,1.1 -0.5,1.7 -0.5,2.3 0,43.6 0.1,87.3 0.1,130.9 156.3,0 312.7,0 469,0 0,-156.3 0,-312.7 0,-469 -43.7,-0.1 -87.4,-0.1 -131,-0.1 z" fill="#313131"
   id="path2" />
<metadata
   id="metadata842"><rdf:RDF><cc:Work
       rdf:about=""><dc:title></dc:title></cc:Work></rdf:RDF></metadata></svg>
