<svg id="_03._KU_New" data-name="03. KU_New" xmlns="http://www.w3.org/2000/svg" viewBox="0 0 200 97"><defs><style>.cls-1{fill:#fff;}.cls-2{fill:#00665e;}.cls-3{fill:#a8ad00;}.cls-4{fill:#cacbcd;}.cls-5{fill:#b2bb1c;}</style></defs><rect class="cls-1" width="100" height="97"/><polygon class="cls-2" points="24.19 77.28 22.2 73.86 21.26 74.97 21.26 77.28 19.64 77.28 19.64 69.54 21.26 69.54 21.26 72.74 23.91 69.54 25.93 69.54 23.29 72.63 26.08 77.28 24.19 77.28"/><path class="cls-2" d="M29.8,72l-.9,2.53h1.75Zm1.76,5.25-.44-1.35H28.44l-.24.68-.24.67H26.27l2.85-7.75h1.27l2.89,7.75Z"/><path class="cls-2" d="M39.44,75a2.24,2.24,0,0,1-.23,1,2.13,2.13,0,0,1-.63.74,2.74,2.74,0,0,1-.92.46,3.9,3.9,0,0,1-1.15.16,7.66,7.66,0,0,1-.86,0,3.68,3.68,0,0,1-.76-.19,3.12,3.12,0,0,1-.69-.33,3.71,3.71,0,0,1-.63-.51l1.07-1a2.29,2.29,0,0,0,.86.53,3.33,3.33,0,0,0,1,.15,1.67,1.67,0,0,0,1-.24.78.78,0,0,0,.33-.67.86.86,0,0,0-.06-.34.64.64,0,0,0-.18-.25.87.87,0,0,0-.27-.15,1.89,1.89,0,0,0-.36-.1L36,74a3.69,3.69,0,0,1-.87-.24,2.09,2.09,0,0,1-.67-.43,1.87,1.87,0,0,1-.42-.64,2.36,2.36,0,0,1-.14-.88,2.58,2.58,0,0,1,.18-1,2.25,2.25,0,0,1,.54-.75,2.63,2.63,0,0,1,.87-.49,3.79,3.79,0,0,1,1.17-.17,4.56,4.56,0,0,1,.75.06,3.08,3.08,0,0,1,1.28.46,3.64,3.64,0,0,1,.55.42l-1,1a2.21,2.21,0,0,0-.8-.45A2,2,0,0,0,37,70.9l-.37,0a1.85,1.85,0,0,0-.51.07.92.92,0,0,0-.35.2.83.83,0,0,0-.21.28,1,1,0,0,0-.07.35.79.79,0,0,0,.07.32.75.75,0,0,0,.19.24.85.85,0,0,0,.28.16,1.37,1.37,0,0,0,.35.08l.92.12a3.31,3.31,0,0,1,.89.25,2.37,2.37,0,0,1,.68.45,2,2,0,0,1,.42.68,2.52,2.52,0,0,1,.15.91"/><polygon class="cls-2" points="40.98 77.28 40.98 69.54 46.21 69.54 46.21 70.98 42.6 70.98 42.6 72.64 45.68 72.64 45.68 74.09 42.6 74.09 42.6 75.83 46.21 75.83 46.21 77.28 40.98 77.28"/><polygon class="cls-2" points="50.4 70.95 50.4 77.29 48.77 77.29 48.77 70.95 46.75 70.95 46.75 69.54 52.42 69.54 52.42 70.95 50.4 70.95"/><path class="cls-2" d="M58.59,75a2.24,2.24,0,0,1-.23,1,2.21,2.21,0,0,1-.62.74,2.89,2.89,0,0,1-.93.46,3.9,3.9,0,0,1-1.15.16,7.66,7.66,0,0,1-.86,0,3.68,3.68,0,0,1-.76-.19,3.12,3.12,0,0,1-.69-.33,3.71,3.71,0,0,1-.63-.51l1.07-1a2.29,2.29,0,0,0,.86.53,3.33,3.33,0,0,0,1,.15,1.67,1.67,0,0,0,1-.24A.78.78,0,0,0,57,75a.86.86,0,0,0-.06-.34.64.64,0,0,0-.18-.25.87.87,0,0,0-.27-.15,1.89,1.89,0,0,0-.36-.1L55.17,74a3.69,3.69,0,0,1-.87-.24,2.2,2.2,0,0,1-.67-.43,1.87,1.87,0,0,1-.42-.64,2.36,2.36,0,0,1-.14-.88,2.58,2.58,0,0,1,.18-1,2.25,2.25,0,0,1,.54-.75,2.63,2.63,0,0,1,.87-.49,3.79,3.79,0,0,1,1.17-.17,4.47,4.47,0,0,1,.75.06,3.08,3.08,0,0,1,1.28.46,4.3,4.3,0,0,1,.56.42l-1.06,1a2.21,2.21,0,0,0-.8-.45,2,2,0,0,0-.4-.07l-.38,0a1.85,1.85,0,0,0-.51.07,1,1,0,0,0-.35.2.83.83,0,0,0-.21.28,1,1,0,0,0-.06.35.79.79,0,0,0,.06.32.75.75,0,0,0,.19.24.85.85,0,0,0,.28.16,1.37,1.37,0,0,0,.35.08l.92.12a3.31,3.31,0,0,1,.89.25,2.37,2.37,0,0,1,.68.45,2,2,0,0,1,.42.68,2.52,2.52,0,0,1,.15.91"/><path class="cls-2" d="M62.74,72l-.9,2.53h1.75Zm1.75,5.25-.43-1.35H61.38l-.24.68c-.09.22-.17.45-.24.67H59.2l2.86-7.75h1.27l2.88,7.75Z"/><path class="cls-2" d="M71.41,71.93a1,1,0,0,0-.07-.39.93.93,0,0,0-.2-.3.89.89,0,0,0-.33-.19,1.14,1.14,0,0,0-.43-.07H69v1.88h1.39a1.38,1.38,0,0,0,.43-.07.89.89,0,0,0,.33-.19,1,1,0,0,0,.2-.29.92.92,0,0,0,.07-.38m.11,5.36-1.52-3H69v3H67.38V69.54h3.1a2.9,2.9,0,0,1,1.09.19,2.51,2.51,0,0,1,.81.52,2.19,2.19,0,0,1,.5.76,2.59,2.59,0,0,1,.17.92,2.23,2.23,0,0,1-.11.7,2.27,2.27,0,0,1-.32.57,2.68,2.68,0,0,1-.44.45,3.47,3.47,0,0,1-.52.3l1.75,3.34Z"/><polygon class="cls-2" points="77.5 70.95 77.5 77.29 75.88 77.29 75.88 70.95 73.86 70.95 73.86 69.54 79.53 69.54 79.53 70.95 77.5 70.95"/><rect class="cls-3" x="19.63" y="55.69" width="60.2" height="7.94"/><path class="cls-2" d="M72,8.05V34c0,4.64-2.79,7.42-7.06,7.42s-7-2.78-7-7.42V10.56a2.51,2.51,0,0,0-2.51-2.51H43.16a3.74,3.74,0,0,0-2.9,1.38L27.53,25V8.05H19.62V47.76h7.91V35.64l5.24-6.23L43.18,47.76H52.4L38,23.47,49.53,9.71a.28.28,0,0,1,.31-.08.27.27,0,0,1,.18.26v24.4c0,8.55,6.6,14.15,14.91,14.15s14.91-5.6,14.91-14.15V8.05Z"/><path class="cls-2" d="M25.09,86.48a2.49,2.49,0,0,1-1.45,1.39,3.43,3.43,0,0,1-2.25,0,2.63,2.63,0,0,1-.88-.55,2.41,2.41,0,0,1-.57-.84,2.73,2.73,0,0,1-.2-1.08V80.18h.93v5.15a2.43,2.43,0,0,0,.12.79,1.93,1.93,0,0,0,.36.61,1.56,1.56,0,0,0,.58.39,2,2,0,0,0,.79.14,1.89,1.89,0,0,0,.77-.14,1.6,1.6,0,0,0,.59-.39,1.78,1.78,0,0,0,.37-.61,2.43,2.43,0,0,0,.12-.79V80.18h.92V85.4a2.92,2.92,0,0,1-.2,1.08"/><polygon class="cls-2" points="32.73 87.99 28.36 81.78 28.36 87.99 27.44 87.99 27.44 80.18 28.2 80.18 32.58 86.37 32.58 80.18 33.49 80.18 33.49 87.99 32.73 87.99"/><rect class="cls-2" x="35.84" y="80.18" width="0.9" height="7.81"/><polygon class="cls-2" points="41.42 87.99 40.66 87.99 38 80.18 38.97 80.18 41.03 86.37 43.09 80.18 44.09 80.18 41.42 87.99"/><polygon class="cls-2" points="45.26 87.99 45.26 80.18 50.33 80.18 50.33 80.98 46.18 80.98 46.18 83.65 49.71 83.65 49.71 84.45 46.18 84.45 46.18 87.19 50.33 87.19 50.33 87.99 45.26 87.99"/><path class="cls-2" d="M56.54,82.36a1.4,1.4,0,0,0-.12-.6,1.18,1.18,0,0,0-.33-.43,1.32,1.32,0,0,0-.5-.26A2.15,2.15,0,0,0,55,81H52.83v2.78H55a2.15,2.15,0,0,0,.64-.09,1.2,1.2,0,0,0,.5-.26,1.14,1.14,0,0,0,.33-.44,1.44,1.44,0,0,0,.12-.61M56.6,88l-1.85-3.44H52.83V88h-.92V80.18H55a3.1,3.1,0,0,1,1,.15,2.14,2.14,0,0,1,.77.43,1.88,1.88,0,0,1,.5.68,2.19,2.19,0,0,1,.18.9,2.13,2.13,0,0,1-.13.78,1.74,1.74,0,0,1-.36.62,2,2,0,0,1-.55.45,2.43,2.43,0,0,1-.71.27c.31.58.63,1.18,1,1.77l1,1.76Z"/><path class="cls-2" d="M63.92,85.84a2.11,2.11,0,0,1-.2.92,1.89,1.89,0,0,1-.55.7,2.75,2.75,0,0,1-.85.45,3.8,3.8,0,0,1-1.1.15,5,5,0,0,1-.81-.06,2.91,2.91,0,0,1-.69-.18,3.25,3.25,0,0,1-.61-.33,4,4,0,0,1-.56-.47l.57-.61a2.83,2.83,0,0,0,.48.4,1.93,1.93,0,0,0,.49.26,2.18,2.18,0,0,0,.53.15,3.91,3.91,0,0,0,.61,0,2.48,2.48,0,0,0,.75-.1,1.54,1.54,0,0,0,.56-.27,1.17,1.17,0,0,0,.36-.44,1.45,1.45,0,0,0,0-1.13,1.15,1.15,0,0,0-.28-.4,1.54,1.54,0,0,0-.43-.26,3,3,0,0,0-.55-.13l-.9-.12a3.06,3.06,0,0,1-.8-.22,2.13,2.13,0,0,1-.65-.42,1.93,1.93,0,0,1-.44-.63,2.15,2.15,0,0,1-.16-.83,2.18,2.18,0,0,1,.18-.89,2,2,0,0,1,.5-.7,2.29,2.29,0,0,1,.8-.44,3.13,3.13,0,0,1,1-.16,4.83,4.83,0,0,1,.68,0,2.94,2.94,0,0,1,.6.16,2.73,2.73,0,0,1,.54.27,4.45,4.45,0,0,1,.51.4l-.56.55a3.2,3.2,0,0,0-.38-.29,1.53,1.53,0,0,0-.4-.21,2.15,2.15,0,0,0-.47-.13,3.16,3.16,0,0,0-.55,0,2,2,0,0,0-.68.1,1.43,1.43,0,0,0-.5.29,1.25,1.25,0,0,0-.31.45,1.58,1.58,0,0,0-.11.58,1.1,1.1,0,0,0,.11.49,1.2,1.2,0,0,0,.29.38,1.7,1.7,0,0,0,.43.26,2.39,2.39,0,0,0,.54.15l.83.13a3.43,3.43,0,0,1,.79.23,2.38,2.38,0,0,1,.67.42,1.84,1.84,0,0,1,.46.64,1.89,1.89,0,0,1,.18.84"/><rect class="cls-2" x="65.58" y="80.18" width="0.9" height="7.81"/><polygon class="cls-2" points="71.1 80.98 71.1 87.99 70.2 87.99 70.2 80.98 67.86 80.98 67.86 80.18 73.45 80.18 73.45 80.98 71.1 80.98"/><polygon class="cls-2" points="77.3 84.75 77.3 87.99 76.38 87.99 76.38 84.75 73.97 80.18 74.96 80.18 76.83 83.85 78.71 80.18 79.7 80.18 77.3 84.75"/><polygon class="cls-4" points="200 97 100 97 100 0 200 97"/><polygon class="cls-5" points="100 97 100 0 200 0 100 97"/></svg>