<?xml version="1.0" encoding="UTF-8" standalone="no"?>
<svg
   xmlns:dc="http://purl.org/dc/elements/1.1/"
   xmlns:cc="http://creativecommons.org/ns#"
   xmlns:rdf="http://www.w3.org/1999/02/22-rdf-syntax-ns#"
   xmlns:svg="http://www.w3.org/2000/svg"
   xmlns="http://www.w3.org/2000/svg"
   xmlns:sodipodi="http://sodipodi.sourceforge.net/DTD/sodipodi-0.dtd"
   xmlns:inkscape="http://www.inkscape.org/namespaces/inkscape"
   viewBox="0 0 153.31073 114.98305"
   version="1.1"
   id="svg4"
   sodipodi:docname="image.svg"
   width="153.31073"
   height="114.98305"
   fill="#006b67"
   stroke="#006b67"
   opacity="0.5"
   inkscape:version="0.92.4 (5da689c313, 2019-01-14)">
  <metadata
     id="metadata10">
    <rdf:RDF>
      <cc:Work
         rdf:about="">
        <dc:format>image/svg+xml</dc:format>
        <dc:type
           rdf:resource="http://purl.org/dc/dcmitype/StillImage" />
        <dc:title />
      </cc:Work>
    </rdf:RDF>
  </metadata>
  <defs
     id="defs8" />
  <sodipodi:namedview
     pagecolor="#ffffff"
     bordercolor="#666666"
     borderopacity="1"
     objecttolerance="10"
     gridtolerance="10"
     guidetolerance="10"
     inkscape:pageopacity="0"
     inkscape:pageshadow="2"
     inkscape:window-width="1711"
     inkscape:window-height="904"
     id="namedview6"
     showgrid="false"
     inkscape:zoom="3.6875"
     inkscape:cx="52.231878"
     inkscape:cy="43.601144"
     inkscape:window-x="1943"
     inkscape:window-y="93"
     inkscape:window-maximized="0"
     inkscape:current-layer="svg4" />
  <path
     d="M 101.53383,75.445851 H 56.127146 c -2.893589,0 -5.239238,-2.345649 -5.239238,-5.239234 V 38.77121 c 0,-2.893585 2.345649,-5.239234 5.239238,-5.239234 h 45.406684 c 2.89359,0 5.23924,2.345649 5.23924,5.239234 v 31.435407 c 0,2.893585 -2.34565,5.239234 -5.23924,5.239234 z M 63.112792,39.644416 c -3.375815,0 -6.112441,2.736627 -6.112441,6.11244 0,3.375813 2.736626,6.112438 6.112441,6.112438 3.37581,0 6.112439,-2.736625 6.112439,-6.112438 0,-3.375813 -2.736629,-6.11244 -6.112439,-6.11244 z M 57.873557,68.460205 H 99.787434 V 56.235326 L 90.235106,46.683 c -0.511482,-0.511479 -1.340807,-0.511479 -1.852399,0 L 73.591259,61.47456 67.531756,55.415057 c -0.51148,-0.51148 -1.340807,-0.51148 -1.852397,0 l -7.805802,7.805915 z"
     id="path2"
     inkscape:connector-curvature="0"
     style="stroke-width:0.10915071" />
</svg>
