<svg id="KU_New" xmlns="http://www.w3.org/2000/svg" viewBox="0 0 89 89"><defs><style>.cls-1{fill:#00665e;}.cls-2{fill:#a8ad00;}</style></defs><polygon class="cls-1" points="16.09 77.01 13.89 73.2 12.83 74.44 12.83 77.01 11.04 77.01 11.04 68.4 12.83 68.4 12.83 71.95 15.78 68.4 18.03 68.4 15.09 71.83 18.2 77.01 16.09 77.01"/><path class="cls-1" d="M22.34,71.18l-1,2.81h1.95ZM24.29,77l-.49-1.49h-3c-.08.25-.17.5-.26.75s-.19.5-.27.74H18.41l3.17-8.61H23L26.2,77Z"/><path class="cls-1" d="M33.05,74.46a2.43,2.43,0,0,1-.25,1.12,2.52,2.52,0,0,1-.69.83,3.36,3.36,0,0,1-1,.51,4.35,4.35,0,0,1-1.28.18,5.82,5.82,0,0,1-.95-.07,3.91,3.91,0,0,1-.85-.2,3.56,3.56,0,0,1-.76-.37,4,4,0,0,1-.7-.56l1.19-1.17a2.38,2.38,0,0,0,1,.58,3.39,3.39,0,0,0,1.11.17,1.92,1.92,0,0,0,1.1-.26,1,1,0,0,0,.3-1.13.68.68,0,0,0-.2-.27,1.09,1.09,0,0,0-.3-.18,3.26,3.26,0,0,0-.4-.11l-1-.14a4,4,0,0,1-1-.26,2.78,2.78,0,0,1-.74-.48,2.09,2.09,0,0,1-.47-.72,2.83,2.83,0,0,1-.16-1,2.69,2.69,0,0,1,.21-1.07,2.36,2.36,0,0,1,.6-.83,2.79,2.79,0,0,1,1-.55A4,4,0,0,1,30,68.31a5.53,5.53,0,0,1,.84.06,3.75,3.75,0,0,1,.75.19,3.18,3.18,0,0,1,.67.32,3.44,3.44,0,0,1,.62.48l-1.17,1.13a2.14,2.14,0,0,0-.44-.32A2.11,2.11,0,0,0,30.8,70a2.67,2.67,0,0,0-.45-.08l-.42,0a1.84,1.84,0,0,0-.56.08,1,1,0,0,0-.39.21.82.82,0,0,0-.24.32,1,1,0,0,0-.07.39.86.86,0,0,0,.07.36.75.75,0,0,0,.21.26,1.4,1.4,0,0,0,.32.18,2.34,2.34,0,0,0,.38.09l1,.13a4,4,0,0,1,1,.28,2.52,2.52,0,0,1,.75.5,2.22,2.22,0,0,1,.47.75,2.91,2.91,0,0,1,.16,1"/><polygon class="cls-1" points="34.78 77.01 34.78 68.4 40.59 68.4 40.59 69.99 36.57 69.99 36.57 71.85 40 71.85 40 73.46 36.57 73.46 36.57 75.4 40.59 75.4 40.59 77.01 34.78 77.01"/><polygon class="cls-1" points="45.24 69.96 45.24 77.01 43.43 77.01 43.43 69.96 41.19 69.96 41.19 68.4 47.5 68.4 47.5 69.96 45.24 69.96"/><path class="cls-1" d="M54.35,74.46a2.43,2.43,0,0,1-.25,1.12,2.52,2.52,0,0,1-.69.83,3.36,3.36,0,0,1-1,.51,4.35,4.35,0,0,1-1.28.18,5.82,5.82,0,0,1-1-.07,3.91,3.91,0,0,1-.85-.2,3.81,3.81,0,0,1-.76-.37,4.41,4.41,0,0,1-.7-.56L49,74.73a2.38,2.38,0,0,0,1,.58,3.39,3.39,0,0,0,1.11.17,1.92,1.92,0,0,0,1.1-.26,1,1,0,0,0,.3-1.13.68.68,0,0,0-.2-.27,1.09,1.09,0,0,0-.3-.18,3.26,3.26,0,0,0-.4-.11l-1-.14a4,4,0,0,1-1-.26,2.78,2.78,0,0,1-.74-.48,1.93,1.93,0,0,1-.46-.72,2.61,2.61,0,0,1-.17-1,2.69,2.69,0,0,1,.21-1.07,2.36,2.36,0,0,1,.6-.83,2.79,2.79,0,0,1,1-.55,4,4,0,0,1,1.29-.19,5.53,5.53,0,0,1,.84.06,3.43,3.43,0,0,1,.75.19,3.18,3.18,0,0,1,.67.32,3.44,3.44,0,0,1,.62.48L53,70.49a2.14,2.14,0,0,0-.44-.32A2.11,2.11,0,0,0,52.1,70a2.51,2.51,0,0,0-.45-.08l-.42,0a1.84,1.84,0,0,0-.56.08,1,1,0,0,0-.39.21.93.93,0,0,0-.24.32,1,1,0,0,0-.07.39.86.86,0,0,0,.07.36.89.89,0,0,0,.21.26,1.4,1.4,0,0,0,.32.18,2.34,2.34,0,0,0,.38.09l1,.13a4,4,0,0,1,1,.28,2.4,2.4,0,0,1,.75.5,2.22,2.22,0,0,1,.47.75,2.91,2.91,0,0,1,.16,1"/><path class="cls-1" d="M59,71.18,58,74h2Zm2,5.83-.48-1.49h-3l-.27.75-.27.74H55l3.17-8.61h1.42L62.83,77Z"/><path class="cls-1" d="M68.62,71.06a1.23,1.23,0,0,0-.08-.44.86.86,0,0,0-.23-.33,1.09,1.09,0,0,0-.36-.22,1.4,1.4,0,0,0-.47-.08H65.93v2.09h1.55A1.41,1.41,0,0,0,68,72a1.07,1.07,0,0,0,.36-.21.9.9,0,0,0,.23-.32,1.16,1.16,0,0,0,.08-.42m.11,6-1.68-3.38H65.93V77h-1.8V68.4h3.45a3.27,3.27,0,0,1,1.21.21,2.57,2.57,0,0,1,.9.57,2.33,2.33,0,0,1,.56.85,2.73,2.73,0,0,1,.19,1,2.11,2.11,0,0,1-.13.77A2.33,2.33,0,0,1,69.47,73a2.66,2.66,0,0,1-.58.34l2,3.71Z"/><polygon class="cls-1" points="75.4 69.96 75.4 77.01 73.59 77.01 73.59 69.96 71.34 69.96 71.34 68.4 77.65 68.4 77.65 69.96 75.4 69.96"/><rect class="cls-2" x="11.02" y="52.99" width="66.96" height="8.83"/><path class="cls-1" d="M69.26,0V28.88c0,5.16-3.1,8.25-7.85,8.25S53.63,34,53.63,28.88V2.8A2.8,2.8,0,0,0,50.83,0H37.19A4.15,4.15,0,0,0,34,1.54L19.81,18.85V0H11V44.17h8.8V30.69l5.82-6.92,11.59,20.4H47.47l-16-27L44.28,1.85a.31.31,0,0,1,.34-.09.29.29,0,0,1,.2.29V29.19c0,9.51,7.35,15.74,16.59,15.74S78,38.7,78,29.19V0Z"/><path class="cls-1" d="M17.09,87.24a2.73,2.73,0,0,1-.63.93,2.8,2.8,0,0,1-1,.61,3.31,3.31,0,0,1-1.25.22A3.35,3.35,0,0,1,13,88.78a2.8,2.8,0,0,1-1-.61,2.73,2.73,0,0,1-.63-.93A3.18,3.18,0,0,1,11.14,86v-5.8h1V86a2.43,2.43,0,0,0,.14.88,1.86,1.86,0,0,0,.4.68,1.68,1.68,0,0,0,.64.43,2.21,2.21,0,0,0,.87.16A2.18,2.18,0,0,0,15.1,88a1.72,1.72,0,0,0,.65-.43,1.88,1.88,0,0,0,.41-.68A2.66,2.66,0,0,0,16.3,86V80.23h1V86a3.18,3.18,0,0,1-.23,1.21"/><polygon class="cls-1" points="25.6 88.92 20.73 82.02 20.73 88.92 19.71 88.92 19.71 80.23 20.56 80.23 25.42 87.11 25.42 80.23 26.44 80.23 26.44 88.92 25.6 88.92"/><rect class="cls-1" x="29.05" y="80.23" width="1" height="8.68"/><polygon class="cls-1" points="35.26 88.92 34.41 88.92 31.46 80.23 32.53 80.23 34.83 87.11 37.12 80.23 38.22 80.23 35.26 88.92"/><polygon class="cls-1" points="39.53 88.92 39.53 80.23 45.17 80.23 45.17 81.12 40.55 81.12 40.55 84.09 44.48 84.09 44.48 84.99 40.55 84.99 40.55 88.02 45.17 88.02 45.17 88.92 39.53 88.92"/><path class="cls-1" d="M52.07,82.65a1.53,1.53,0,0,0-.13-.66,1.22,1.22,0,0,0-.36-.48,1.42,1.42,0,0,0-.56-.29,2.59,2.59,0,0,0-.71-.1H48v3.09h2.36a2.6,2.6,0,0,0,.71-.09,1.56,1.56,0,0,0,.56-.29,1.18,1.18,0,0,0,.36-.49,1.63,1.63,0,0,0,.13-.69m.07,6.27-2-3.83H48v3.83h-1V80.23H50.4a3.46,3.46,0,0,1,1.09.17,2.64,2.64,0,0,1,.86.47,2.22,2.22,0,0,1,.55.76,2.34,2.34,0,0,1,.2,1,2.48,2.48,0,0,1-.14.87,2.15,2.15,0,0,1-.4.69,2.35,2.35,0,0,1-.62.5,2.92,2.92,0,0,1-.78.29c.34.65.7,1.31,1.07,2l1.07,2Z"/><path class="cls-1" d="M60.28,86.53a2.38,2.38,0,0,1-.21,1,2.15,2.15,0,0,1-.62.78,2.63,2.63,0,0,1-.94.49,4,4,0,0,1-1.23.18,5,5,0,0,1-.9-.07,3.62,3.62,0,0,1-.77-.2,3.91,3.91,0,0,1-1.29-.9l.63-.66a4.11,4.11,0,0,0,.53.44,2.35,2.35,0,0,0,.54.29,2.94,2.94,0,0,0,.6.16,4.72,4.72,0,0,0,.68,0,3.09,3.09,0,0,0,.83-.11,1.86,1.86,0,0,0,.63-.31,1.46,1.46,0,0,0,.4-.49,1.51,1.51,0,0,0,.14-.65,1.44,1.44,0,0,0-.12-.61,1.1,1.1,0,0,0-.31-.43,1.43,1.43,0,0,0-.48-.29,2.72,2.72,0,0,0-.61-.15l-1-.13a4.07,4.07,0,0,1-.88-.24,2.61,2.61,0,0,1-.73-.47,2.32,2.32,0,0,1-.49-.7,2.27,2.27,0,0,1-.17-.93,2.46,2.46,0,0,1,.19-1,2.16,2.16,0,0,1,.56-.77,2.57,2.57,0,0,1,.89-.5,3.53,3.53,0,0,1,1.16-.18,4.42,4.42,0,0,1,.76.06,3.46,3.46,0,0,1,.67.18,3.36,3.36,0,0,1,.6.3,4.5,4.5,0,0,1,.56.44l-.62.62a2.47,2.47,0,0,0-.41-.33,2.38,2.38,0,0,0-.45-.23,2.85,2.85,0,0,0-.52-.15,4,4,0,0,0-.62,0,2.25,2.25,0,0,0-.76.11,1.58,1.58,0,0,0-.55.33,1.26,1.26,0,0,0-.35.5,1.62,1.62,0,0,0-.12.64,1.23,1.23,0,0,0,.12.55,1.2,1.2,0,0,0,.33.41,2,2,0,0,0,.48.3A2.69,2.69,0,0,0,57,84l.93.15a4.24,4.24,0,0,1,.88.25,2.53,2.53,0,0,1,.75.48,2.26,2.26,0,0,1,.51.7,2.16,2.16,0,0,1,.19.94"/><rect class="cls-1" x="62.13" y="80.23" width="1" height="8.68"/><polygon class="cls-1" points="68.27 81.12 68.27 88.92 67.27 88.92 67.27 81.12 64.66 81.12 64.66 80.23 70.89 80.23 70.89 81.12 68.27 81.12"/><polygon class="cls-1" points="75.17 85.31 75.17 88.92 74.15 88.92 74.15 85.31 71.46 80.23 72.56 80.23 74.65 84.32 76.74 80.23 77.84 80.23 75.17 85.31"/></svg>